# xmcd
#
# Track frame offsets: 
#        200
#        15027
#        31690
#        50330
#        68152
#        85662
#        102255
#        118877
#        136660
#        153550
#        170795
#        188495
#
# Disc length: 2735 seconds
#
# Revision: 0
# Processed by: cddbd v1.5.2PL0 Copyright (c) Steve Scherf et al.
# Submitted via: ExactAudioCopy v1.1
#
DISCID=8a0aad0c
DTITLE=Sluggy Ranks - Ghetto Youth Bust
DYEAR=1989
DGENRE=Reggae
TTITLE0=Ghetto Youth Bust
TTITLE1=Jah Is Guiding I
TTITLE2=Surrender Your Heart
TTITLE3=Badness Nah Go Work
TTITLE4=Take The Slug
TTITLE5=95% Black And 5% White
TTITLE6=Girls Time Now
TTITLE7=Loving Jah Jah
TTITLE8=No Money Naah Run
TTITLE9=No Pardon
TTITLE10=Mi Love Oonu Bad
TTITLE11=The Badge
EXTD=
EXTT0=
EXTT1=
EXTT2=
EXTT3=
EXTT4=
EXTT5=
EXTT6=
EXTT7=
EXTT8=
EXTT9=
EXTT10=
EXTT11=
PLAYORDER=
